<?xml version="1.0" standalone="no"?>
<!DOCTYPE svg PUBLIC "-//W3C//DTD SVG 20010904//EN"
 "http://www.w3.org/TR/2001/REC-SVG-20010904/DTD/svg10.dtd">
<svg version="1.0" xmlns="http://www.w3.org/2000/svg"
 width="145.000000pt" height="145.000000pt" viewBox="0 0 145.000000 145.000000"
 preserveAspectRatio="xMidYMid meet">
<metadata>
Created by potrace 1.11, written by Peter Selinger 2001-2013
</metadata>
<g transform="translate(0.000000,145.000000) scale(0.100000,-0.100000)"
fill="#000000" stroke="none">
<path d="M917 1334 c-14 -14 -29 -39 -32 -55 -6 -24 -12 -29 -38 -30 -18 0
-39 -2 -47 -3 -8 -2 -55 -6 -105 -10 -140 -11 -165 -14 -243 -30 -178 -38
-281 -139 -316 -307 -7 -36 -21 -69 -37 -86 -38 -41 -65 -91 -83 -151 -32
-110 -2 -376 55 -495 35 -72 51 -77 254 -77 162 0 179 2 206 20 l28 21 21 -21
c19 -19 32 -20 190 -20 l170 0 31 29 c17 17 44 33 59 36 16 3 33 12 39 19 18
22 20 98 4 131 -12 22 -13 30 -3 33 47 16 59 67 30 121 -6 13 -10 24 -8 25 2
1 24 15 51 30 26 15 47 29 47 32 0 3 -10 14 -22 24 l-23 18 37 0 c66 0 96 12
117 45 30 50 31 107 2 136 -19 19 -19 20 -1 36 19 17 19 18 -3 36 l-22 18 45
1 c25 0 56 6 70 13 54 27 80 136 40 169 -36 32 -126 103 -150 120 -14 10 -44
31 -67 48 -24 16 -47 30 -53 30 -5 0 -16 15 -24 33 -28 60 -62 85 -94 68 -12
-6 -24 -4 -37 5 -28 21 -59 17 -88 -12z m91 -35 c28 -50 43 -66 48 -52 8 19
98 -30 224 -122 95 -70 110 -86 104 -111 -4 -13 2 -36 13 -54 18 -32 18 -32
-7 -52 -22 -18 -34 -20 -97 -15 -40 3 -73 2 -73 -3 0 -5 11 -22 25 -38 25 -30
19 -54 -7 -30 -22 21 -120 92 -170 123 -26 17 -53 42 -59 56 -17 42 -53 71
-86 68 -15 -1 -41 3 -56 10 -41 16 -75 -3 -103 -58 -19 -38 -27 -45 -56 -47
-324 -24 -425 -40 -495 -79 -24 -13 -45 -20 -48 -16 -7 12 15 82 42 133 39 72
148 148 233 163 3 1 21 4 40 8 56 11 108 16 322 33 59 4 69 2 79 -15 20 -30
34 -15 31 32 -3 32 2 49 18 70 28 36 57 35 78 -4z m77 1 c21 -23 16 -25 -19
-9 -14 7 -23 16 -20 20 8 14 19 11 39 -11z m-215 -260 c12 -12 25 -32 30 -46
8 -19 15 -24 30 -19 23 7 93 -30 202 -108 116 -84 129 -97 124 -129 -3 -18 3
-37 15 -52 19 -25 19 -25 -3 -45 -12 -12 -29 -22 -37 -22 -35 -3 -85 0 -107 5
-34 9 -37 -9 -7 -44 26 -31 26 -33 7 -44 -52 -30 -152 -60 -196 -58 -19 1 -31
-13 -35 -38 -5 -37 -14 -86 -19 -102 -3 -12 5 -22 26 -33 56 -29 84 -151 41
-175 -11 -6 -88 -10 -179 -10 -177 0 -171 -3 -178 70 -10 113 -32 210 -47 210
-7 0 -25 -21 -40 -46 l-28 -47 35 -32 c30 -27 36 -39 36 -74 0 -28 -6 -47 -20
-61 -19 -19 -33 -20 -198 -20 -175 0 -179 0 -201 24 -20 21 -52 105 -65 169
-24 114 -28 155 -24 237 7 145 60 244 163 305 55 32 169 62 266 69 70 6 149
12 246 21 35 3 43 0 48 -16 11 -33 30 -15 27 24 -4 37 7 64 34 91 20 21 30 20
54 -4z m91 -16 l24 -26 -30 13 c-39 17 -38 16 -30 28 8 15 8 15 36 -15z m117
-584 c27 -60 -18 -96 -77 -62 -45 25 -44 68 2 81 52 15 61 13 75 -19z m-113
-75 c69 -41 100 -89 91 -140 -5 -25 -14 -36 -36 -44 -28 -9 -30 -9 -30 17 -1
38 -33 106 -60 125 -19 13 -22 22 -17 61 8 66 20 79 28 31 4 -22 14 -44 24
-50z m-427 -65 c-2 -5 -9 -6 -16 -1 -7 4 -10 15 -6 25 6 17 8 17 16 2 5 -9 8
-21 6 -26z"/>
<path d="M1077 1153 c-11 -10 -8 -48 4 -60 28 -28 74 22 49 52 -13 16 -42 20
-53 8z"/>
<path d="M974 833 c-5 -19 -2 -30 11 -39 36 -26 75 22 43 54 -21 21 -47 14
-54 -15z"/>
</g>
</svg>
